<?xml version="1.0" standalone="no"?>
<!DOCTYPE svg PUBLIC "-//W3C//DTD SVG 20010904//EN"
 "http://www.w3.org/TR/2001/REC-SVG-20010904/DTD/svg10.dtd">
<svg version="1.0" xmlns="http://www.w3.org/2000/svg"
 width="225.000000pt" height="225.000000pt" viewBox="0 0 225.000000 225.000000"
 preserveAspectRatio="xMidYMid meet">

<g transform="translate(0.000000,225.000000) scale(0.100000,-0.100000)"
fill="#000000" stroke="none">
<path d="M1593 1849 c6 -23 -20 -39 -33 -19 -13 21 -45 7 -48 -21 -2 -17 -13
-31 -30 -39 -15 -6 -24 -9 -20 -5 10 10 -11 47 -22 40 -5 -3 -8 -23 -7 -44 l1
-39 28 14 c41 21 48 18 48 -24 0 -32 -5 -41 -26 -51 -50 -22 -96 -63 -84 -75
8 -8 13 -7 19 3 6 9 11 10 15 2 4 -6 14 -11 21 -11 11 0 13 8 9 29 -5 23 -2
32 16 41 12 6 23 10 24 8 2 -2 1 -166 -2 -365 l-4 -363 -54 0 -54 0 0 73 c0
39 3 109 7 155 5 75 8 82 27 82 55 1 50 16 -37 112 l-85 94 -78 -7 c-44 -4
-125 -8 -181 -8 -97 -1 -103 0 -103 19 0 11 7 20 15 20 19 0 19 17 0 36 -8 8
-18 21 -22 29 -5 8 -18 11 -35 8 -21 -4 -27 -12 -30 -39 -3 -23 0 -34 9 -34 7
0 13 -9 13 -20 0 -17 -7 -20 -41 -20 -37 0 -45 -5 -92 -57 -28 -32 -87 -94
-129 -139 -78 -80 -88 -94 -67 -94 12 0 205 -126 214 -140 3 -5 -14 -20 -39
-32 -26 -12 -46 -26 -46 -30 0 -4 20 -8 45 -8 l45 0 0 -39 c0 -75 -11 -71 219
-71 l207 0 73 35 c40 19 75 35 77 35 2 0 4 -13 4 -28 0 -21 5 -28 20 -28 16 0
20 7 20 33 0 33 0 33 50 33 47 0 50 -2 50 -25 0 -21 5 -25 30 -25 25 0 30 4
30 25 0 39 28 31 36 -11 4 -22 10 -31 14 -24 6 9 9 9 13 -1 3 -8 6 2 6 22 1
28 6 38 21 42 41 11 20 27 -35 27 -36 0 -57 5 -60 13 -3 7 -1 199 3 427 6 294
12 415 20 418 7 2 22 13 34 23 16 14 19 22 11 25 -7 3 -13 12 -13 20 0 8 -5
14 -11 14 -7 0 -9 -9 -6 -21z m-818 -760 c4 -27 5 -52 3 -54 -4 -4 -131 76
-152 96 -6 5 22 9 66 9 l76 0 7 -51z"/>
<path d="M954 786 c-7 -18 4 -38 17 -30 5 3 7 10 4 15 -4 5 -1 9 6 9 8 0 10
-14 5 -50 -4 -32 -3 -50 3 -50 14 0 23 39 19 81 -2 26 -8 35 -26 37 -13 2 -24
-3 -28 -12z"/>
<path d="M688 753 c-20 -5 -33 -44 -24 -68 9 -24 37 -30 51 -11 7 9 19 14 29
10 22 -8 22 38 0 60 -16 16 -24 17 -56 9z m40 -25 c7 -7 12 -16 12 -20 0 -15
-15 -8 -28 12 -13 22 -3 27 16 8z m-28 -28 c0 -5 -5 -10 -11 -10 -5 0 -7 5 -4
10 3 6 8 10 11 10 2 0 4 -4 4 -10z"/>
<path d="M1040 730 c-31 -44 -23 -64 26 -68 28 -2 47 2 58 13 14 15 17 15 22
1 3 -9 10 -16 15 -16 17 0 9 32 -17 66 -35 45 -74 47 -104 4z m57 4 c-3 -3
-12 -4 -19 -1 -8 3 -5 6 6 6 11 1 17 -2 13 -5z m13 -39 c-10 -12 -16 -13 -27
-3 -11 9 -16 9 -24 -3 -5 -8 -9 -9 -9 -3 0 17 12 24 43 24 25 0 28 -2 17 -15z"/>
<path d="M1199 744 c-10 -12 -8 -19 11 -39 19 -20 20 -25 8 -25 -9 0 -18 6
-21 13 -2 6 -8 9 -12 5 -15 -14 5 -38 30 -38 35 0 42 26 15 55 -20 22 -21 23
-3 27 16 3 16 4 1 10 -9 4 -22 1 -29 -8z"/>
<path d="M852 718 c2 -18 -2 -33 -9 -35 -8 -3 -13 4 -13 15 0 21 -32 38 -50
27 -5 -3 -10 -16 -10 -28 1 -21 1 -22 15 -3 8 11 18 17 21 13 4 -4 2 -13 -4
-20 -16 -19 -5 -27 40 -27 l38 0 0 45 c0 34 -4 45 -16 45 -11 0 -14 -8 -12
-32z"/>
<path d="M910 736 c0 -8 5 -18 11 -22 8 -4 7 -9 -2 -15 -11 -8 -11 -11 4 -20
9 -6 15 -15 11 -20 -4 -6 -11 -6 -20 2 -21 17 -31 2 -12 -17 26 -27 58 -9 58
32 0 22 -6 37 -15 40 -8 4 -15 10 -15 16 0 5 5 6 10 3 6 -3 10 -1 10 4 0 6 -9
11 -20 11 -11 0 -20 -6 -20 -14z"/>
<path d="M1440 666 c0 -8 -5 -16 -12 -18 -7 -3 -6 -7 5 -11 13 -5 17 -1 17 18
0 14 -2 25 -5 25 -3 0 -5 -6 -5 -14z"/>
<path d="M1370 628 c0 -9 -6 -19 -12 -22 -7 -3 1 -4 17 0 17 3 35 10 40 16 7
8 4 9 -9 4 -12 -4 -23 -1 -28 6 -6 10 -8 9 -8 -4z"/>
<path d="M1510 625 c-7 -9 -11 -17 -9 -20 3 -2 10 5 17 15 14 24 10 26 -8 5z"/>
<path d="M1467 623 c-4 -3 -7 -11 -7 -17 0 -6 5 -5 12 2 6 6 9 14 7 17 -3 3
-9 2 -12 -2z"/>
<path d="M1542 610 c0 -14 2 -19 5 -12 2 6 2 18 0 25 -3 6 -5 1 -5 -13z"/>
<path d="M1570 615 c-10 -12 -10 -15 2 -15 8 0 15 7 15 15 0 8 -1 15 -2 15 -2
0 -8 -7 -15 -15z"/>
<path d="M1310 610 c0 -6 7 -10 15 -10 8 0 15 2 15 4 0 2 -7 6 -15 10 -8 3
-15 1 -15 -4z"/>
<path d="M856 541 c-18 -19 -5 -24 20 -8 15 9 24 -1 17 -19 -3 -8 0 -14 6 -14
17 0 13 25 -7 44 -18 15 -20 15 -36 -3z"/>
<path d="M1366 548 c3 -5 10 -6 15 -3 13 9 11 12 -6 12 -8 0 -12 -4 -9 -9z"/>
<path d="M1410 516 c-31 -13 -63 -22 -72 -20 -10 1 -18 -7 -21 -22 -2 -13 0
-24 4 -24 5 0 9 5 9 11 0 5 5 7 10 4 6 -3 10 -1 10 4 0 6 7 11 15 11 8 0 15 3
15 8 0 4 12 8 27 9 15 0 29 6 31 12 3 9 8 9 18 0 11 -9 14 -7 14 10 0 11 -1
21 -2 20 -2 0 -28 -11 -58 -23z"/>
<path d="M924 498 c-4 -6 -3 -8 4 -4 5 3 13 0 15 -6 3 -8 6 -6 6 5 1 19 -14
23 -25 5z"/>
<path d="M976 484 c-5 -13 -1 -15 19 -12 14 3 28 2 30 -2 3 -5 13 -7 23 -6 9
2 19 0 22 -3 3 -4 12 0 21 9 15 16 12 17 -35 14 -28 -1 -56 2 -62 7 -8 6 -14
4 -18 -7z"/>
<path d="M1130 464 c0 -7 14 -11 35 -11 19 1 35 4 35 8 0 4 -16 9 -35 11 -23
3 -35 0 -35 -8z"/>
<path d="M1244 471 c4 -5 -3 -7 -14 -4 -11 3 -20 0 -20 -6 0 -6 6 -11 14 -11
8 0 22 -3 31 -6 10 -4 15 -2 13 7 -2 8 3 13 10 11 8 -1 11 2 7 8 -3 5 -15 10
-26 10 -11 0 -18 -4 -15 -9z"/>
</g>
</svg>
